{
  "asset": {
    "version": "2.0",
    "generator": "Halcyon convert_monkey_to_gltf.py"
  },
  "scene": 0,
  "scenes": [
    {
      "name": "MonkeyScene",
      "nodes": [
        0
      ]
    }
  ],
  "nodes": [
    {
      "name": "Suzanne",
      "mesh": 0
    }
  ],
  "meshes": [
    {
      "name": "Suzanne",
      "primitives": [
        {
          "attributes": {
            "POSITION": 0,
            "NORMAL": 1,
            "TEXCOORD_0": 2
          },
          "indices": 3,
          "material": 0,
          "mode": 4
        }
      ]
    }
  ],
  "materials": [
    {
      "name": "MonkeyPbr",
      "pbrMetallicRoughness": {
        "baseColorTexture": {
          "index": 0
        },
        "metallicRoughnessTexture": {
          "index": 2
        },
        "metallicFactor": 1.0,
        "roughnessFactor": 1.0
      },
      "normalTexture": {
        "index": 1
      },
      "occlusionTexture": {
        "index": 2
      }
    }
  ],
  "textures": [
    {
      "source": 0
    },
    {
      "source": 1
    },
    {
      "source": 2
    }
  ],
  "images": [
    {
      "name": "BaseColor",
      "uri": "color.png"
    },
    {
      "name": "Normal",
      "uri": "normal.png"
    },
    {
      "name": "MetallicRoughnessOcclusion",
      "uri": "metallic_roughness.png"
    }
  ],
  "samplers": [
    {}
  ],
  "buffers": [
    {
      "uri": "monkey.bin",
      "byteLength": 505984
    }
  ],
  "bufferViews": [
    {
      "buffer": 0,
      "byteOffset": 0,
      "byteLength": 317056,
      "byteStride": 32,
      "target": 34962
    },
    {
      "buffer": 0,
      "byteOffset": 317056,
      "byteLength": 188928,
      "target": 34963
    }
  ],
  "accessors": [
    {
      "bufferView": 0,
      "byteOffset": 0,
      "componentType": 5126,
      "count": 9908,
      "type": "VEC3",
      "min": [
        -1.330684,
        -0.973083,
        -0.78389
      ],
      "max": [
        1.330684,
        0.941956,
        0.822896
      ]
    },
    {
      "bufferView": 0,
      "byteOffset": 12,
      "componentType": 5126,
      "count": 9908,
      "type": "VEC3"
    },
    {
      "bufferView": 0,
      "byteOffset": 24,
      "componentType": 5126,
      "count": 9908,
      "type": "VEC2"
    },
    {
      "bufferView": 1,
      "byteOffset": 0,
      "componentType": 5125,
      "count": 47232,
      "type": "SCALAR",
      "min": [
        0
      ],
      "max": [
        9907
      ]
    }
  ]
}
